<?xml version="1.0" encoding="UTF-8" standalone="no"?>
<svg
   xmlns:dc="http://purl.org/dc/elements/1.1/"
   xmlns:cc="http://creativecommons.org/ns#"
   xmlns:rdf="http://www.w3.org/1999/02/22-rdf-syntax-ns#"
   xmlns:svg="http://www.w3.org/2000/svg"
   xmlns="http://www.w3.org/2000/svg"
   xmlns:sodipodi="http://sodipodi.sourceforge.net/DTD/sodipodi-0.dtd"
   xmlns:inkscape="http://www.inkscape.org/namespaces/inkscape"
   width="42.471977mm"
   height="34.220955mm"
   viewBox="0 0 42.471977 34.220956"
   version="1.1"
   id="svg2441"
   sodipodi:docname="LOWCODETALK_LOGO.svg"
   inkscape:version="1.0.1 (3bc2e813f5, 2020-09-07)">
  <defs
     id="defs2435">
    <filter
       inkscape:collect="always"
       style="color-interpolation-filters:sRGB"
       id="filter1753"
       x="-0.016016038"
       width="1.0320321"
       y="-0.021934876"
       height="1.0438699">
      <feGaussianBlur
         inkscape:collect="always"
         stdDeviation="1.508177"
         id="feGaussianBlur1755" />
    </filter>
    <filter
       inkscape:collect="always"
       style="color-interpolation-filters:sRGB"
       id="filter2342"
       x="-0.039796859"
       width="1.0795937"
       y="-0.17908643"
       height="1.3581729">
      <feGaussianBlur
         inkscape:collect="always"
         stdDeviation="0.15794378"
         id="feGaussianBlur2344" />
    </filter>
    <filter
       inkscape:collect="always"
       style="color-interpolation-filters:sRGB"
       id="filter2330"
       x="-0.039796859"
       width="1.0795937"
       y="-0.17908558"
       height="1.3581712">
      <feGaussianBlur
         inkscape:collect="always"
         stdDeviation="0.15794378"
         id="feGaussianBlur2332" />
    </filter>
    <filter
       inkscape:collect="always"
       style="color-interpolation-filters:sRGB"
       id="filter2326"
       x="-0.039796859"
       width="1.0795937"
       y="-0.17908558"
       height="1.3581712">
      <feGaussianBlur
         inkscape:collect="always"
         stdDeviation="0.15794378"
         id="feGaussianBlur2328" />
    </filter>
    <filter
       inkscape:collect="always"
       style="color-interpolation-filters:sRGB"
       id="filter2322"
       x="-0.039796859"
       width="1.0795937"
       y="-0.17908558"
       height="1.3581712">
      <feGaussianBlur
         inkscape:collect="always"
         stdDeviation="0.15794378"
         id="feGaussianBlur2324" />
    </filter>
    <filter
       inkscape:collect="always"
       style="color-interpolation-filters:sRGB"
       id="filter2310"
       x="-0.039796859"
       width="1.0795937"
       y="-0.17908558"
       height="1.3581712">
      <feGaussianBlur
         inkscape:collect="always"
         stdDeviation="0.15794378"
         id="feGaussianBlur2312" />
    </filter>
    <filter
       inkscape:collect="always"
       style="color-interpolation-filters:sRGB"
       id="filter2302"
       x="-0.039796833"
       width="1.0795937"
       y="-0.17908643"
       height="1.3581729">
      <feGaussianBlur
         inkscape:collect="always"
         stdDeviation="0.15794378"
         id="feGaussianBlur2304" />
    </filter>
    <filter
       inkscape:collect="always"
       style="color-interpolation-filters:sRGB"
       id="filter2294"
       x="-0.039796859"
       width="1.0795937"
       y="-0.17908558"
       height="1.3581712">
      <feGaussianBlur
         inkscape:collect="always"
         stdDeviation="0.15794378"
         id="feGaussianBlur2296" />
    </filter>
    <filter
       inkscape:collect="always"
       style="color-interpolation-filters:sRGB"
       id="filter2286"
       x="-0.039796859"
       width="1.0795937"
       y="-0.17908558"
       height="1.3581712">
      <feGaussianBlur
         inkscape:collect="always"
         stdDeviation="0.15794378"
         id="feGaussianBlur2288" />
    </filter>
    <filter
       inkscape:collect="always"
       style="color-interpolation-filters:sRGB"
       id="filter2338"
       x="-0.079593718"
       width="1.1591874"
       y="-0.17908643"
       height="1.3581729">
      <feGaussianBlur
         inkscape:collect="always"
         stdDeviation="0.15794378"
         id="feGaussianBlur2340" />
    </filter>
    <filter
       inkscape:collect="always"
       style="color-interpolation-filters:sRGB"
       id="filter2334"
       x="-0.079593785"
       width="1.1591876"
       y="-0.17908558"
       height="1.3581712">
      <feGaussianBlur
         inkscape:collect="always"
         stdDeviation="0.15794378"
         id="feGaussianBlur2336" />
    </filter>
    <filter
       inkscape:collect="always"
       style="color-interpolation-filters:sRGB"
       id="filter2318"
       x="-0.079593718"
       width="1.1591874"
       y="-0.17908643"
       height="1.3581729">
      <feGaussianBlur
         inkscape:collect="always"
         stdDeviation="0.15794378"
         id="feGaussianBlur2320" />
    </filter>
    <filter
       inkscape:collect="always"
       style="color-interpolation-filters:sRGB"
       id="filter2314"
       x="-0.079593718"
       width="1.1591874"
       y="-0.17908643"
       height="1.3581729">
      <feGaussianBlur
         inkscape:collect="always"
         stdDeviation="0.15794378"
         id="feGaussianBlur2316" />
    </filter>
    <filter
       inkscape:collect="always"
       style="color-interpolation-filters:sRGB"
       id="filter2298"
       x="-0.079593718"
       width="1.1591874"
       y="-0.17908558"
       height="1.3581712">
      <feGaussianBlur
         inkscape:collect="always"
         stdDeviation="0.15794378"
         id="feGaussianBlur2300" />
    </filter>
    <filter
       inkscape:collect="always"
       style="color-interpolation-filters:sRGB"
       id="filter2290"
       x="-0.079593718"
       width="1.1591874"
       y="-0.17908558"
       height="1.3581712">
      <feGaussianBlur
         inkscape:collect="always"
         stdDeviation="0.15794378"
         id="feGaussianBlur2292" />
    </filter>
    <filter
       inkscape:collect="always"
       style="color-interpolation-filters:sRGB"
       id="filter2306"
       x="-0.079593554"
       width="1.1591871"
       y="-0.17908643"
       height="1.3581729">
      <feGaussianBlur
         inkscape:collect="always"
         stdDeviation="0.15794378"
         id="feGaussianBlur2308" />
    </filter>
    <filter
       inkscape:collect="always"
       style="color-interpolation-filters:sRGB"
       id="filter2282"
       x="-0.066189297"
       width="1.1323786"
       y="-0.029594272"
       height="1.0591885">
      <feGaussianBlur
         inkscape:collect="always"
         stdDeviation="1.7230331"
         id="feGaussianBlur2284" />
    </filter>
    <filter
       inkscape:collect="always"
       style="color-interpolation-filters:sRGB"
       id="filter2377"
       x="-0.042349052"
       width="1.0846981"
       y="-0.095285214"
       height="1.1905704">
      <feGaussianBlur
         inkscape:collect="always"
         stdDeviation="0.1680728"
         id="feGaussianBlur2379" />
    </filter>
    <filter
       inkscape:collect="always"
       style="color-interpolation-filters:sRGB"
       id="filter2402"
       x="-0.016463302"
       width="1.0329266"
       y="-0.013674439"
       height="1.0273489">
      <feGaussianBlur
         inkscape:collect="always"
         stdDeviation="0.13793737"
         id="feGaussianBlur2404" />
    </filter>
  </defs>
  <sodipodi:namedview
     id="base"
     pagecolor="#ffffff"
     bordercolor="#666666"
     borderopacity="1.0"
     inkscape:pageopacity="0.0"
     inkscape:pageshadow="2"
     inkscape:zoom="1.979899"
     inkscape:cx="216.63608"
     inkscape:cy="68.178905"
     inkscape:document-units="mm"
     inkscape:current-layer="layer1"
     inkscape:document-rotation="0"
     showgrid="false"
     fit-margin-top="0"
     fit-margin-left="0"
     fit-margin-right="0"
     fit-margin-bottom="0"
     inkscape:window-width="1920"
     inkscape:window-height="1017"
     inkscape:window-x="1912"
     inkscape:window-y="-8"
     inkscape:window-maximized="1" />
  <metadata
     id="metadata2438">
    <rdf:RDF>
      <cc:Work
         rdf:about="">
        <dc:format>image/svg+xml</dc:format>
        <dc:type
           rdf:resource="http://purl.org/dc/dcmitype/StillImage" />
        <dc:title></dc:title>
      </cc:Work>
    </rdf:RDF>
  </metadata>
  <g
     inkscape:label="Lager 1"
     inkscape:groupmode="layer"
     id="layer1"
     transform="translate(-82.329488,-118.96096)">
    <path
       id="path1854"
       style="opacity:0.532632;fill:#1a1a1a;fill-opacity:1;stroke:none;stroke-width:5.32157;stroke-linecap:round;stroke-linejoin:round;stroke-miterlimit:4;stroke-dasharray:none;stroke-opacity:1;filter:url(#filter1753)"
       d="M 3.6196246,10.234205 V 136.73747 a 6.6145833,6.6145833 0 0 0 6.6145804,6.61458 H 186.85465 a 18.967205,18.967205 0 0 1 11.79471,4.11326 l 25.79013,20.47856 a 3.1939693,3.1939693 0 0 0 5.18013,-2.50132 V 149.96663 129.81429 10.234205 a 6.6145833,6.6145833 0 0 0 -6.61458,-6.61458 H 10.234205 a 6.6145833,6.6145833 0 0 0 -6.6145804,6.61458 z"
       transform="matrix(0.18209618,0,0,0.18209618,82.329488,118.96096)" />
    <path
       id="path1856"
       style="fill:#006680;fill-opacity:1;stroke:none;stroke-width:0.969039;stroke-linecap:round;stroke-linejoin:round;stroke-miterlimit:4;stroke-dasharray:none;stroke-opacity:1"
       d="m 83.352797,121.18874 v 23.03576 a 1.2044904,1.2044904 0 0 0 1.204491,1.2045 H 116.7192 a 3.4538556,3.4538556 0 0 1 2.14778,0.74901 l 4.69626,3.72907 a 0.5816096,0.5816096 0 0 0 0.9433,-0.45549 v -2.8181 -3.66965 -21.7751 a 1.2044904,1.2044904 0 0 0 -1.2045,-1.20448 H 84.557288 a 1.2044904,1.2044904 0 0 0 -1.204491,1.20448 z" />
    <g
       id="g2361"
       transform="matrix(0.68823753,0,0,0.68823753,30.626346,111.32715)">
      <path
         id="path1948"
         style="opacity:0.486316;fill:#333333;fill-opacity:1;stroke:none;stroke-width:0.264999;stroke-linecap:round;stroke-linejoin:round;stroke-miterlimit:4;stroke-dasharray:none;filter:url(#filter2342)"
         d="m 79.058224,15.687523 h 7.40833 c 0.58632,0 1.05834,0.47201 1.05834,1.05833 0,0.58632 -0.47202,1.05833 -1.05834,1.05833 h -7.40833 c -0.58631,0 -1.05833,-0.47201 -1.05833,-1.05833 0,-0.58632 0.47202,-1.05833 1.05833,-1.05833 z" />
      <path
         id="path1950"
         style="opacity:0.486316;fill:#333333;fill-opacity:1;stroke:none;stroke-width:0.264999;stroke-linecap:round;stroke-linejoin:round;stroke-miterlimit:4;stroke-dasharray:none;filter:url(#filter2330)"
         d="m 86.995724,19.788563 h 7.40833 c 0.58632,0 1.05834,0.47202 1.05834,1.05833 0,0.58632 -0.47202,1.05834 -1.05834,1.05834 h -7.40833 c -0.58632,0 -1.05833,-0.47202 -1.05833,-1.05834 0,-0.58631 0.47201,-1.05833 1.05833,-1.05833 z" />
      <path
         id="path1952"
         style="opacity:0.486316;fill:#333333;fill-opacity:1;stroke:none;stroke-width:0.264999;stroke-linecap:round;stroke-linejoin:round;stroke-miterlimit:4;stroke-dasharray:none;filter:url(#filter2326)"
         d="m 81.836354,23.492723 h 7.40833 c 0.58631,0 1.05833,0.47202 1.05833,1.05833 0,0.58632 -0.47202,1.05834 -1.05833,1.05834 h -7.40833 c -0.58632,0 -1.05834,-0.47202 -1.05834,-1.05834 0,-0.58631 0.47202,-1.05833 1.05834,-1.05833 z" />
      <path
         id="path1954"
         style="opacity:0.486316;fill:#333333;fill-opacity:1;stroke:none;stroke-width:0.264999;stroke-linecap:round;stroke-linejoin:round;stroke-miterlimit:4;stroke-dasharray:none;filter:url(#filter2322)"
         d="m 81.836354,27.726063 h 7.40833 c 0.58631,0 1.05833,0.47202 1.05833,1.05833 0,0.58632 -0.47202,1.05834 -1.05833,1.05834 h -7.40833 c -0.58632,0 -1.05834,-0.47202 -1.05834,-1.05834 0,-0.58631 0.47202,-1.05833 1.05834,-1.05833 z" />
      <path
         id="path1956"
         style="opacity:0.486316;fill:#333333;fill-opacity:1;stroke:none;stroke-width:0.264999;stroke-linecap:round;stroke-linejoin:round;stroke-miterlimit:4;stroke-dasharray:none;filter:url(#filter2310)"
         d="m 90.303014,32.091673 h 7.40833 c 0.58632,0 1.05834,0.47202 1.05834,1.05834 0,0.58631 -0.47202,1.05833 -1.05834,1.05833 h -7.40833 c -0.58632,0 -1.05833,-0.47202 -1.05833,-1.05833 0,-0.58632 0.47201,-1.05834 1.05833,-1.05834 z" />
      <path
         id="path1958"
         style="opacity:0.486316;fill:#333333;fill-opacity:1;stroke:none;stroke-width:0.264999;stroke-linecap:round;stroke-linejoin:round;stroke-miterlimit:4;stroke-dasharray:none;filter:url(#filter2302)"
         d="m 96.123864,35.531273 h 7.408326 c 0.58633,0 1.05834,0.47201 1.05834,1.05833 0,0.58632 -0.47201,1.05833 -1.05834,1.05833 h -7.408326 c -0.58632,0 -1.05834,-0.47201 -1.05834,-1.05833 0,-0.58632 0.47202,-1.05833 1.05834,-1.05833 z" />
      <path
         id="path1960"
         style="opacity:0.486316;fill:#333333;fill-opacity:1;stroke:none;stroke-width:0.264999;stroke-linecap:round;stroke-linejoin:round;stroke-miterlimit:4;stroke-dasharray:none;filter:url(#filter2294)"
         d="m 89.773844,40.029173 h 7.40834 c 0.58631,0 1.05833,0.47202 1.05833,1.05834 0,0.58631 -0.47202,1.05833 -1.05833,1.05833 h -7.40834 c -0.58631,0 -1.05833,-0.47202 -1.05833,-1.05833 0,-0.58632 0.47202,-1.05834 1.05833,-1.05834 z" />
      <path
         id="path1962"
         style="opacity:0.486316;fill:#333333;fill-opacity:1;stroke:none;stroke-width:0.264999;stroke-linecap:round;stroke-linejoin:round;stroke-miterlimit:4;stroke-dasharray:none;filter:url(#filter2286)"
         d="m 80.116564,43.733353 h 7.40833 c 0.58632,0 1.05833,0.47202 1.05833,1.05834 0,0.58631 -0.47201,1.05833 -1.05833,1.05833 h -7.40833 c -0.58632,0 -1.05834,-0.47202 -1.05834,-1.05833 0,-0.58632 0.47202,-1.05834 1.05834,-1.05834 z" />
      <path
         id="path1964"
         style="opacity:0.486316;fill:#333333;fill-opacity:1;stroke:none;stroke-width:0.187383;stroke-linecap:round;stroke-linejoin:round;stroke-miterlimit:4;stroke-dasharray:none;filter:url(#filter2338)"
         d="m 89.906144,15.687523 h 2.64583 c 0.58632,0 1.05833,0.47201 1.05833,1.05833 0,0.58632 -0.47201,1.05833 -1.05833,1.05833 h -2.64583 c -0.58632,0 -1.05834,-0.47201 -1.05834,-1.05833 0,-0.58632 0.47202,-1.05833 1.05834,-1.05833 z" />
      <path
         id="path1966"
         style="opacity:0.486316;fill:#333333;fill-opacity:1;stroke:none;stroke-width:0.187383;stroke-linecap:round;stroke-linejoin:round;stroke-miterlimit:4;stroke-dasharray:none;filter:url(#filter2334)"
         d="m 98.240514,19.788563 h 2.645826 c 0.58632,0 1.05834,0.47202 1.05834,1.05833 0,0.58632 -0.47202,1.05834 -1.05834,1.05834 h -2.645826 c -0.58632,0 -1.05833,-0.47202 -1.05833,-1.05834 0,-0.58631 0.47201,-1.05833 1.05833,-1.05833 z" />
      <path
         id="path1968"
         style="opacity:0.486316;fill:#333333;fill-opacity:1;stroke:none;stroke-width:0.187383;stroke-linecap:round;stroke-linejoin:round;stroke-miterlimit:4;stroke-dasharray:none;filter:url(#filter2318)"
         d="m 94.007174,27.593773 h 2.64584 c 0.58631,0 1.05833,0.47201 1.05833,1.05833 0,0.58632 -0.47202,1.05833 -1.05833,1.05833 h -2.64584 c -0.58631,0 -1.05833,-0.47201 -1.05833,-1.05833 0,-0.58632 0.47202,-1.05833 1.05833,-1.05833 z" />
      <path
         id="path1970"
         style="opacity:0.486316;fill:#333333;fill-opacity:1;stroke:none;stroke-width:0.187383;stroke-linecap:round;stroke-linejoin:round;stroke-miterlimit:4;stroke-dasharray:none;filter:url(#filter2314)"
         d="m 84.614474,31.959403 h 2.64583 c 0.58631,0 1.05833,0.47201 1.05833,1.05833 0,0.58632 -0.47202,1.05833 -1.05833,1.05833 h -2.64583 c -0.58632,0 -1.05834,-0.47201 -1.05834,-1.05833 0,-0.58632 0.47202,-1.05833 1.05834,-1.05833 z" />
      <path
         id="path1972"
         style="opacity:0.486316;fill:#333333;fill-opacity:1;stroke:none;stroke-width:0.187383;stroke-linecap:round;stroke-linejoin:round;stroke-miterlimit:4;stroke-dasharray:none;filter:url(#filter2298)"
         d="m 83.291554,40.029173 h 2.64583 c 0.58632,0 1.05834,0.47202 1.05834,1.05834 0,0.58631 -0.47202,1.05833 -1.05834,1.05833 h -2.64583 c -0.58631,0 -1.05833,-0.47202 -1.05833,-1.05833 0,-0.58632 0.47202,-1.05834 1.05833,-1.05834 z" />
      <path
         id="path1974"
         style="opacity:0.486316;fill:#333333;fill-opacity:1;stroke:none;stroke-width:0.187383;stroke-linecap:round;stroke-linejoin:round;stroke-miterlimit:4;stroke-dasharray:none;filter:url(#filter2290)"
         d="m 91.890514,43.733353 h 2.64584 c 0.58631,0 1.05833,0.47202 1.05833,1.05834 0,0.58631 -0.47202,1.05833 -1.05833,1.05833 h -2.64584 c -0.58631,0 -1.05833,-0.47202 -1.05833,-1.05833 0,-0.58632 0.47202,-1.05834 1.05833,-1.05834 z" />
      <path
         id="path1976"
         style="opacity:0.486316;fill:#333333;fill-opacity:1;stroke:none;stroke-width:0.187383;stroke-linecap:round;stroke-linejoin:round;stroke-miterlimit:4;stroke-dasharray:none;filter:url(#filter2306)"
         d="m 101.15093,31.959403 h 2.64583 c 0.58633,0 1.05834,0.47201 1.05834,1.05833 0,0.58632 -0.47201,1.05833 -1.05834,1.05833 h -2.64583 c -0.58632,0 -1.05834,-0.47201 -1.05834,-1.05833 0,-0.58632 0.47202,-1.05833 1.05834,-1.05833 z" />
    </g>
    <path
       id="path1860"
       style="fill:#124559;fill-opacity:1;stroke:none;stroke-width:0.182382;stroke-linecap:round;stroke-linejoin:round;stroke-miterlimit:4;stroke-dasharray:none"
       d="m 85.264803,122.3515 h 5.098691 c 0.403528,0 0.72839,0.32487 0.72839,0.72838 0,0.40354 -0.324862,0.72838 -0.72839,0.72838 h -5.098691 c -0.40352,0 -0.728382,-0.32484 -0.728382,-0.72838 0,-0.40351 0.324862,-0.72838 0.728382,-0.72838 z" />
    <path
       id="path1862"
       style="fill:#124559;fill-opacity:1;stroke:none;stroke-width:0.182382;stroke-linecap:round;stroke-linejoin:round;stroke-miterlimit:4;stroke-dasharray:none"
       d="m 90.72769,125.17399 h 5.09869 c 0.403527,0 0.728394,0.32487 0.728394,0.72838 0,0.40354 -0.324867,0.7284 -0.728394,0.7284 h -5.09869 c -0.403527,0 -0.728384,-0.32486 -0.728384,-0.7284 0,-0.40351 0.324857,-0.72838 0.728384,-0.72838 z" />
    <path
       id="path1864"
       style="fill:#124559;fill-opacity:1;stroke:none;stroke-width:0.182382;stroke-linecap:round;stroke-linejoin:round;stroke-miterlimit:4;stroke-dasharray:none"
       d="m 87.176816,127.72333 h 5.098692 c 0.403522,0 0.728382,0.32487 0.728382,0.72838 0,0.40354 -0.32486,0.7284 -0.728382,0.7284 h -5.098692 c -0.403527,0 -0.728389,-0.32486 -0.728389,-0.7284 0,-0.40351 0.324862,-0.72838 0.728389,-0.72838 z" />
    <path
       id="path1866"
       style="fill:#124559;fill-opacity:1;stroke:none;stroke-width:0.182382;stroke-linecap:round;stroke-linejoin:round;stroke-miterlimit:4;stroke-dasharray:none"
       d="m 87.176816,130.63687 h 5.098692 c 0.403522,0 0.728382,0.32487 0.728382,0.7284 0,0.40352 -0.32486,0.72838 -0.728382,0.72838 h -5.098692 c -0.403527,0 -0.728389,-0.32486 -0.728389,-0.72838 0,-0.40353 0.324862,-0.7284 0.728389,-0.7284 z" />
    <path
       id="path1868"
       style="fill:#008db1;fill-opacity:1;stroke:none;stroke-width:0.182382;stroke-linecap:round;stroke-linejoin:round;stroke-miterlimit:4;stroke-dasharray:none"
       d="m 93.00389,133.64146 h 5.098694 c 0.403533,0 0.72838,0.32487 0.72838,0.72838 0,0.40354 -0.324847,0.72838 -0.72838,0.72838 H 93.00389 c -0.403528,0 -0.728382,-0.32484 -0.728382,-0.72838 0,-0.40351 0.324854,-0.72838 0.728382,-0.72838 z" />
    <path
       id="path1870"
       style="fill:#598392;fill-opacity:1;stroke:none;stroke-width:0.182382;stroke-linecap:round;stroke-linejoin:round;stroke-miterlimit:4;stroke-dasharray:none"
       d="m 97.010023,136.00872 h 5.098677 c 0.40354,0 0.7284,0.32485 0.7284,0.72838 0,0.40354 -0.32486,0.72838 -0.7284,0.72838 h -5.098677 c -0.403533,0 -0.728393,-0.32484 -0.728393,-0.72838 0,-0.40353 0.32486,-0.72838 0.728393,-0.72838 z" />
    <path
       id="path1872"
       style="fill:#598392;fill-opacity:1;stroke:none;stroke-width:0.182382;stroke-linecap:round;stroke-linejoin:round;stroke-miterlimit:4;stroke-dasharray:none"
       d="m 92.639696,139.10434 h 5.098707 c 0.403514,0 0.72838,0.32487 0.72838,0.7284 0,0.40352 -0.324866,0.72838 -0.72838,0.72838 h -5.098707 c -0.40352,0 -0.728384,-0.32486 -0.728384,-0.72838 0,-0.40353 0.324864,-0.7284 0.728384,-0.7284 z" />
    <path
       id="path1874"
       style="fill:#124559;fill-opacity:1;stroke:none;stroke-width:0.182382;stroke-linecap:round;stroke-linejoin:round;stroke-miterlimit:4;stroke-dasharray:none"
       d="m 85.993193,141.6537 h 5.098691 c 0.403528,0 0.728382,0.32487 0.728382,0.72838 0,0.40353 -0.324854,0.7284 -0.728382,0.7284 h -5.098691 c -0.403528,0 -0.72839,-0.32487 -0.72839,-0.7284 0,-0.40351 0.324862,-0.72838 0.72839,-0.72838 z" />
    <path
       id="path1876"
       style="fill:#008db1;fill-opacity:1;stroke:none;stroke-width:0.128964;stroke-linecap:round;stroke-linejoin:round;stroke-miterlimit:4;stroke-dasharray:none"
       d="m 92.73075,122.3515 h 1.82096 c 0.403527,0 0.728382,0.32487 0.728382,0.72838 0,0.40354 -0.324855,0.72838 -0.728382,0.72838 h -1.82096 c -0.403528,0 -0.72839,-0.32484 -0.72839,-0.72838 0,-0.40351 0.324862,-0.72838 0.72839,-0.72838 z" />
    <path
       id="path1878"
       style="fill:#598392;fill-opacity:1;stroke:none;stroke-width:0.128964;stroke-linecap:round;stroke-linejoin:round;stroke-miterlimit:4;stroke-dasharray:none"
       d="m 98.466783,125.17399 h 1.820937 c 0.40354,0 0.7284,0.32487 0.7284,0.72838 0,0.40354 -0.32486,0.7284 -0.7284,0.7284 h -1.820937 c -0.403533,0 -0.72838,-0.32486 -0.72838,-0.7284 0,-0.40351 0.324847,-0.72838 0.72838,-0.72838 z" />
    <path
       id="path1880"
       style="fill:#598392;fill-opacity:1;stroke:none;stroke-width:0.128964;stroke-linecap:round;stroke-linejoin:round;stroke-miterlimit:4;stroke-dasharray:none"
       d="m 95.553232,130.54584 h 1.820972 c 0.403513,0 0.72838,0.32485 0.72838,0.72838 0,0.40352 -0.324867,0.72838 -0.72838,0.72838 h -1.820972 c -0.40352,0 -0.728382,-0.32486 -0.728382,-0.72838 0,-0.40353 0.324862,-0.72838 0.728382,-0.72838 z" />
    <path
       id="path1882"
       style="fill:#008db1;fill-opacity:1;stroke:none;stroke-width:0.128964;stroke-linecap:round;stroke-linejoin:round;stroke-miterlimit:4;stroke-dasharray:none"
       d="m 89.088822,133.55043 h 1.820962 c 0.40352,0 0.728382,0.32485 0.728382,0.72838 0,0.40352 -0.324862,0.72838 -0.728382,0.72838 h -1.820962 c -0.403525,0 -0.728388,-0.32486 -0.728388,-0.72838 0,-0.40353 0.324863,-0.72838 0.728388,-0.72838 z" />
    <path
       id="path1884"
       style="fill:#008db1;fill-opacity:1;stroke:none;stroke-width:0.128964;stroke-linecap:round;stroke-linejoin:round;stroke-miterlimit:4;stroke-dasharray:none"
       d="m 88.17834,139.10434 h 1.82096 c 0.403528,0 0.72839,0.32487 0.72839,0.7284 0,0.40352 -0.324862,0.72838 -0.72839,0.72838 h -1.82096 c -0.403521,0 -0.728382,-0.32486 -0.728382,-0.72838 0,-0.40353 0.324861,-0.7284 0.728382,-0.7284 z" />
    <path
       id="path1886"
       style="fill:#598392;fill-opacity:1;stroke:none;stroke-width:0.128964;stroke-linecap:round;stroke-linejoin:round;stroke-miterlimit:4;stroke-dasharray:none"
       d="m 94.096468,141.6537 h 1.820966 c 0.403521,0 0.72839,0.32487 0.72839,0.72838 0,0.40353 -0.324869,0.7284 -0.72839,0.7284 h -1.820966 c -0.40352,0 -0.728382,-0.32487 -0.728382,-0.7284 0,-0.40351 0.324862,-0.72838 0.728382,-0.72838 z" />
    <path
       id="path1888"
       style="fill:#598392;fill-opacity:1;stroke:none;stroke-width:0.128964;stroke-linecap:round;stroke-linejoin:round;stroke-miterlimit:4;stroke-dasharray:none"
       d="m 100.46984,133.55043 h 1.82096 c 0.40354,0 0.72838,0.32485 0.72838,0.72838 0,0.40352 -0.32484,0.72838 -0.72838,0.72838 h -1.82096 c -0.40353,0 -0.728397,-0.32486 -0.728397,-0.72838 0,-0.40353 0.324867,-0.72838 0.728397,-0.72838 z" />
    <path
       id="path1922"
       style="opacity:0.541053;fill:#01161e;fill-opacity:1;stroke:none;stroke-width:0.999999px;stroke-linecap:butt;stroke-linejoin:miter;stroke-opacity:1;filter:url(#filter2282)"
       d="m 664.78125,45.035156 -0.0684,0.03125 h -6.60351 l -53.5859,139.593754 h 6.49023 l 0.72461,0.10742 H 667 V 45.035156 Z"
       transform="matrix(0.18209618,0,0,0.17947042,-13.07007,112.13542)" />
    <path
       id="path1858"
       style="fill:#011a23;fill-opacity:1;stroke:none;stroke-width:0.182096px;stroke-linecap:butt;stroke-linejoin:miter;stroke-opacity:1"
       d="m 108.821,119.98418 -0.0118,0.006 h -1.20247 l -9.757777,25.41948 h 1.181838 l 0.1319,0.0197 h 17.556989 a 3.4538556,3.4538556 0 0 1 2.1478,0.74901 l 4.69644,3.72908 a 0.5816096,0.5816096 0 0 0 0.9432,-0.45561 v -2.81786 -3.66966 -21.7751 a 1.2044903,1.2044903 0 0 0 -1.20459,-1.20459 z" />
    <g
       id="g2431"
       transform="matrix(0.68823753,0,0,0.68823753,30.626346,111.32715)">
      <path
         id="path2363"
         style="opacity:0.511579;fill:#000000;fill-opacity:1;stroke:none;stroke-width:0.374765;stroke-linecap:round;stroke-linejoin:round;stroke-miterlimit:4;stroke-dasharray:none;filter:url(#filter2377)"
         d="m 117.91636,15.224488 h 7.08268 c 0.67652,0 1.22116,0.54464 1.22116,1.22116 v 1.79102 c 0,0.67652 -0.54464,1.22116 -1.22116,1.22116 h -7.08268 c -0.67652,0 -1.22116,-0.54464 -1.22116,-1.22116 v -1.79102 c 0,-0.67652 0.54464,-1.22116 1.22116,-1.22116 z" />
      <path
         id="path2381"
         style="opacity:0.658947;fill:#000000;fill-opacity:1;stroke:none;stroke-width:0.374765;stroke-linecap:round;stroke-linejoin:round;stroke-miterlimit:4;stroke-dasharray:none;filter:url(#filter2402)"
         d="m 117.91637,21.706778 h 7.08267 c 0.67652,0 1.22116,0.54464 1.22116,1.22116 v 1.79101 c 0,0.67653 -0.54464,1.22116 -1.22116,1.22116 h -7.08267 c -0.67652,0 -1.22116,-0.54463 -1.22116,-1.22116 v -1.79101 c 0,-0.67652 0.54464,-1.22116 1.22116,-1.22116 z" />
      <path
         id="path2383"
         style="opacity:0.658947;fill:#000000;fill-opacity:1;stroke:none;stroke-width:0.544521;stroke-linecap:round;stroke-linejoin:round;stroke-miterlimit:4;stroke-dasharray:none;filter:url(#filter2402)"
         d="m 112.62471,28.321358 h 17.66601 c 0.67653,0 1.22116,0.54463 1.22116,1.22116 v 1.79101 c 0,0.67652 -0.54463,1.22116 -1.22116,1.22116 h -17.66601 c -0.67652,0 -1.22116,-0.54464 -1.22116,-1.22116 v -1.79101 c 0,-0.67653 0.54464,-1.22116 1.22116,-1.22116 z" />
      <path
         id="path2385"
         style="opacity:0.658947;fill:#000000;fill-opacity:1;stroke:none;stroke-width:0.364206;stroke-linecap:round;stroke-linejoin:round;stroke-miterlimit:4;stroke-dasharray:none;filter:url(#filter2402)"
         d="m 113.02158,34.539068 h 6.55351 c 0.67653,0 1.22116,0.54464 1.22116,1.22116 v 1.79101 c 0,0.67653 -0.54463,1.22116 -1.22116,1.22116 h -6.55351 c -0.67652,0 -1.22116,-0.54463 -1.22116,-1.22116 v -1.79101 c 0,-0.67652 0.54464,-1.22116 1.22116,-1.22116 z" />
      <path
         id="path2387"
         style="opacity:0.658947;fill:#000000;fill-opacity:1;stroke:none;stroke-width:0.364206;stroke-linecap:round;stroke-linejoin:round;stroke-miterlimit:4;stroke-dasharray:none;filter:url(#filter2402)"
         d="m 123.60492,34.539068 h 6.55351 c 0.67652,0 1.22116,0.54464 1.22116,1.22116 v 1.79101 c 0,0.67653 -0.54464,1.22116 -1.22116,1.22116 h -6.55352 c -0.67652,0 -1.22116,-0.54463 -1.22116,-1.22116 v -1.79101 c 0,-0.67652 0.54464,-1.22116 1.22117,-1.22116 z" />
      <path
         id="path2389"
         style="opacity:0.658947;fill:#000000;fill-opacity:1;stroke:none;stroke-width:0.364206;stroke-linecap:round;stroke-linejoin:round;stroke-miterlimit:4;stroke-dasharray:none;filter:url(#filter2402)"
         d="m 118.44554,41.682818 h 6.55352 c 0.67652,0 1.22116,0.54464 1.22116,1.22116 v 1.79102 c 0,0.67652 -0.54464,1.22116 -1.22116,1.22116 h -6.55352 c -0.67652,0 -1.22116,-0.54464 -1.22116,-1.22116 v -1.79102 c 0,-0.67652 0.54464,-1.22116 1.22116,-1.22116 z" />
    </g>
    <path
       id="path1894"
       style="fill:#014d63;fill-opacity:1;stroke:none;stroke-width:0.257926;stroke-linecap:round;stroke-linejoin:round;stroke-miterlimit:4;stroke-dasharray:none"
       d="m 112.05396,122.07835 h 4.87457 c 0.4656,0 0.84045,0.37485 0.84045,0.84046 v 1.23265 c 0,0.4656 -0.37485,0.84043 -0.84045,0.84043 h -4.87457 c -0.46561,0 -0.84046,-0.37483 -0.84046,-0.84043 v -1.23265 c 0,-0.46561 0.37485,-0.84046 0.84046,-0.84046 z" />
    <path
       id="path1896"
       style="fill:#124559;fill-opacity:1;stroke:none;stroke-width:0.257926;stroke-linecap:round;stroke-linejoin:round;stroke-miterlimit:4;stroke-dasharray:none"
       d="m 112.05396,126.5397 h 4.87457 c 0.4656,0 0.84045,0.37485 0.84045,0.84046 v 1.23263 c 0,0.46562 -0.37485,0.84045 -0.84045,0.84045 h -4.87457 c -0.46561,0 -0.84046,-0.37483 -0.84046,-0.84045 v -1.23263 c 0,-0.46561 0.37485,-0.84046 0.84046,-0.84046 z" />
    <path
       id="path1898"
       style="fill:#598392;fill-opacity:1;stroke:none;stroke-width:0.37476;stroke-linecap:round;stroke-linejoin:round;stroke-miterlimit:4;stroke-dasharray:none"
       d="m 108.41204,131.0921 h 12.15843 c 0.4656,0 0.84043,0.37485 0.84043,0.84046 v 1.23265 c 0,0.4656 -0.37483,0.84043 -0.84043,0.84043 h -12.15843 c -0.46561,0 -0.84046,-0.37483 -0.84046,-0.84043 v -1.23265 c 0,-0.46561 0.37485,-0.84046 0.84046,-0.84046 z" />
    <path
       id="path1900"
       style="fill:#124559;fill-opacity:1;stroke:none;stroke-width:0.25066;stroke-linecap:round;stroke-linejoin:round;stroke-miterlimit:4;stroke-dasharray:none"
       d="m 108.68519,135.37137 h 4.51037 c 0.4656,0 0.84043,0.37485 0.84043,0.84046 v 1.23263 c 0,0.46562 -0.37483,0.84045 -0.84043,0.84045 h -4.51037 c -0.46561,0 -0.84046,-0.37483 -0.84046,-0.84045 v -1.23263 c 0,-0.46561 0.37485,-0.84046 0.84046,-0.84046 z" />
    <path
       id="path1902"
       style="fill:#124559;fill-opacity:1;stroke:none;stroke-width:0.25066;stroke-linecap:round;stroke-linejoin:round;stroke-miterlimit:4;stroke-dasharray:none"
       d="m 115.96903,135.37137 h 4.51039 c 0.4656,0 0.84043,0.37485 0.84043,0.84046 v 1.23263 c 0,0.46562 -0.37483,0.84045 -0.84043,0.84045 h -4.51039 c -0.46561,0 -0.84044,-0.37483 -0.84044,-0.84045 v -1.23263 c 0,-0.46561 0.37483,-0.84046 0.84044,-0.84046 z" />
    <path
       id="path1904"
       style="fill:#008db1;fill-opacity:1;stroke:none;stroke-width:0.25066;stroke-linecap:round;stroke-linejoin:round;stroke-miterlimit:4;stroke-dasharray:none"
       d="m 112.41816,140.28797 h 4.51037 c 0.4656,0 0.84045,0.37483 0.84045,0.84044 v 1.23265 c 0,0.4656 -0.37485,0.84045 -0.84045,0.84045 h -4.51037 c -0.46561,0 -0.84046,-0.37485 -0.84046,-0.84045 v -1.23265 c 0,-0.46561 0.37485,-0.84044 0.84046,-0.84044 z" />
    <path
       id="path2433"
       style="opacity:0.482105;fill:#333333;fill-opacity:1;stroke:none;stroke-width:0.969039;stroke-linecap:round;stroke-linejoin:round;stroke-miterlimit:4;stroke-dasharray:none;stroke-opacity:1"
       d="m 83.352797,121.18874 v 23.03576 a 1.2044904,1.2044904 0 0 0 1.204491,1.2045 H 116.7192 a 3.4538556,3.4538556 0 0 1 2.14778,0.74901 l 4.69626,3.72907 a 0.5816096,0.5816096 0 0 0 0.9433,-0.45549 v -2.8181 -3.66965 -21.7751 a 1.2044904,1.2044904 0 0 0 -1.2045,-1.20448 H 84.557288 a 1.2044904,1.2044904 0 0 0 -1.204491,1.20448 z" />
    <text
       xml:space="preserve"
       style="font-style:normal;font-variant:normal;font-weight:normal;font-stretch:normal;font-size:8.74062px;line-height:1.25;font-family:'Eras Bold ITC';-inkscape-font-specification:'Eras Bold ITC, Normal';font-variant-ligatures:normal;font-variant-caps:normal;font-variant-numeric:normal;font-variant-east-asian:normal;letter-spacing:0px;word-spacing:0px;fill:#ececec;fill-opacity:1;stroke:none;stroke-width:0.182096"
       x="92.683792"
       y="129.33485"
       id="text1910"><tspan
         sodipodi:role="line"
         x="92.683792"
         y="129.33485"
         style="font-style:normal;font-variant:normal;font-weight:normal;font-stretch:normal;font-size:8.74062px;font-family:'Eras Bold ITC';-inkscape-font-specification:'Eras Bold ITC, Normal';font-variant-ligatures:normal;font-variant-caps:normal;font-variant-numeric:normal;font-variant-east-asian:normal;fill:#ececec;stroke-width:0.182096"
         id="tspan1908">LOW</tspan></text>
    <text
       xml:space="preserve"
       style="font-style:normal;font-variant:normal;font-weight:normal;font-stretch:normal;font-size:8.74062px;line-height:1.25;font-family:'Eras Bold ITC';-inkscape-font-specification:'Eras Bold ITC, Normal';font-variant-ligatures:normal;font-variant-caps:normal;font-variant-numeric:normal;font-variant-east-asian:normal;letter-spacing:0px;word-spacing:0px;fill:#ececec;fill-opacity:1;stroke:none;stroke-width:0.182096"
       x="90.933968"
       y="140.70563"
       id="text1914"><tspan
         sodipodi:role="line"
         id="tspan1912"
         x="90.933968"
         y="140.70563"
         style="font-style:normal;font-variant:normal;font-weight:normal;font-stretch:normal;font-size:8.74062px;font-family:'Eras Bold ITC';-inkscape-font-specification:'Eras Bold ITC, Normal';font-variant-ligatures:normal;font-variant-caps:normal;font-variant-numeric:normal;font-variant-east-asian:normal;fill:#ececec;stroke-width:0.182096">CODE</tspan></text>
    <text
       xml:space="preserve"
       style="font-style:normal;font-variant:normal;font-weight:normal;font-stretch:normal;font-size:8.74062px;line-height:1.25;font-family:'Eras Bold ITC';-inkscape-font-specification:'Eras Bold ITC, Normal';font-variant-ligatures:normal;font-variant-caps:normal;font-variant-numeric:normal;font-variant-east-asian:normal;letter-spacing:0px;word-spacing:0px;fill:#000000;fill-opacity:1;stroke:none;stroke-width:0.182096"
       x="91.644577"
       y="153.18192"
       id="text1918"><tspan
         sodipodi:role="line"
         id="tspan1916"
         x="91.644577"
         y="153.18192"
         style="font-style:normal;font-variant:normal;font-weight:normal;font-stretch:normal;font-size:8.74062px;font-family:'Eras Bold ITC';-inkscape-font-specification:'Eras Bold ITC, Normal';font-variant-ligatures:normal;font-variant-caps:normal;font-variant-numeric:normal;font-variant-east-asian:normal;stroke-width:0.182096">TALK</tspan></text>
  </g>
</svg>
